<svg width="52" height="50" viewBox="0 0 52 50" fill="none" xmlns="http://www.w3.org/2000/svg">
<path d="M50.9238 24.5904L27.2974 0.547574C27.1273 0.373994 26.9252 0.236283 26.7028 0.142324C26.4803 0.048364 26.2419 0 26.0011 0C25.7603 0 25.5218 0.048364 25.2994 0.142324C25.0769 0.236283 24.8749 0.373994 24.7047 0.547574L1.07836 24.5904C0.390045 25.2913 0 26.2434 0 27.2365C0 29.2984 1.64622 30.9749 3.67101 30.9749H6.16041V48.1308C6.16041 49.1647 6.98066 50 7.99592 50H22.3301V36.9155H28.7543V50H44.0062C45.0215 50 45.8417 49.1647 45.8417 48.1308V30.9749H48.3311C49.3063 30.9749 50.2412 30.5835 50.9295 29.8767C52.3578 28.4164 52.3578 26.0507 50.9238 24.5904V24.5904Z" fill="#00284E"/>
</svg>
