<svg width="52" height="50" viewBox="0 0 52 50" fill="none" xmlns="http://www.w3.org/2000/svg">
<path d="M44.0062 48.5H30.2543V36.9155V35.4155H28.7543H22.3301H20.8301V36.9155V48.5H7.99592C7.8347 48.5 7.66041 48.3621 7.66041 48.1308V30.9749V29.4749H6.16041H3.67101C2.50026 29.4749 1.5 28.4959 1.5 27.2365C1.5 26.6352 1.73663 26.0611 2.14824 25.6417C2.14837 25.6416 2.1485 25.6414 2.14863 25.6413L25.7746 1.59893L25.7761 1.59749C25.8081 1.56477 25.8447 1.54029 25.883 1.52411C25.9213 1.50795 25.9613 1.5 26.0011 1.5C26.0408 1.5 26.0809 1.50795 26.1191 1.52411L26.7005 0.147674L26.1191 1.52411C26.1574 1.54029 26.194 1.56476 26.2261 1.59749L26.2275 1.59893L49.8535 25.6413C49.8536 25.6415 49.8538 25.6416 49.8539 25.6417C50.7149 26.5189 50.7148 27.951 49.8572 28.8279L49.8549 28.8302C49.4495 29.2465 48.9023 29.4749 48.3311 29.4749H45.8417H44.3417V30.9749V48.1308C44.3417 48.3621 44.1675 48.5 44.0062 48.5Z" stroke="#50ABFF" stroke-width="3"/>
</svg>
