<svg width="152" height="122" viewBox="0 0 152 122" fill="none" xmlns="http://www.w3.org/2000/svg">
<path d="M136.53 41.7235V36.0208C136.53 33.7802 136.089 31.5614 135.232 29.4913C134.374 27.4212 133.117 25.5402 131.533 23.9558C129.948 22.3714 128.067 21.1146 125.997 20.2571C123.927 19.3997 121.709 18.9583 119.468 18.9583H76.0532L58.0049 3.94334C54.9358 1.39115 51.069 -0.00422692 47.0773 9.61863e-06H17.0928C12.5676 9.61863e-06 8.22766 1.79766 5.02782 4.9975C1.82798 8.19734 0.0303329 12.5373 0.0303329 17.0625L0 104.271C0 106.512 0.441335 108.73 1.29881 110.8C2.15628 112.87 3.41309 114.751 4.99749 116.336C6.58189 117.92 8.46285 119.177 10.533 120.035C12.6031 120.892 14.8218 121.333 17.0625 121.333H124.928C127.887 121.334 130.762 120.345 133.095 118.525C135.428 116.704 137.086 114.156 137.804 111.285L151.075 58.2173C151.565 56.2603 151.602 54.2174 151.184 52.2438C150.766 50.2703 149.904 48.418 148.662 46.8279C147.421 45.2377 145.833 43.9515 144.02 43.067C142.207 42.1825 140.216 41.7231 138.199 41.7235H136.53ZM17.0928 11.375H47.0925C48.4219 11.3735 49.7098 11.8377 50.7325 12.6869L70.3582 29.0214C71.3809 29.8707 72.6688 30.3349 73.9982 30.3333H119.468C120.976 30.3333 122.423 30.9326 123.49 31.9992C124.556 33.0658 125.155 34.5124 125.155 36.0208V41.7235H33.579C29.7739 41.7231 26.0778 42.9946 23.0783 45.336C20.0788 47.6773 17.948 50.9541 17.0246 54.6455L11.3826 77.2287L11.4053 17.0625C11.4053 15.5541 12.0045 14.1075 13.0712 13.0408C14.1378 11.9742 15.5844 11.375 17.0928 11.375ZM28.0659 57.4058C28.3735 56.1762 29.083 55.0846 30.0818 54.3042C31.0806 53.5238 32.3115 53.0995 33.579 53.0985H138.199C138.486 53.0993 138.769 53.1654 139.027 53.2917C139.285 53.418 139.511 53.6013 139.688 53.8277C139.865 54.0542 139.988 54.3178 140.048 54.5987C140.107 54.8796 140.103 55.1705 140.034 55.4493L126.763 108.525C126.66 108.934 126.424 109.297 126.091 109.557C125.759 109.816 125.35 109.958 124.928 109.958H17.3582C17.0704 109.959 16.7862 109.893 16.5273 109.768C16.2683 109.642 16.0415 109.459 15.8639 109.232C15.6863 109.006 15.5626 108.741 15.5022 108.46C15.4419 108.179 15.4464 107.887 15.5155 107.608L28.0659 57.4058Z" fill="#FEC326"/>
</svg>
