<svg width="9" height="16" viewBox="0 0 9 16" fill="none" xmlns="http://www.w3.org/2000/svg">
<path d="M8.65584 0.352185C8.87621 0.577756 9 0.883657 9 1.20262C9 1.52157 8.87621 1.82747 8.65584 2.05305L2.83731 8.00726L8.65584 13.9615C8.86996 14.1883 8.98844 14.4922 8.98576 14.8076C8.98308 15.123 8.85946 15.4247 8.64152 15.6477C8.42358 15.8707 8.12876 15.9972 7.82056 16C7.51236 16.0027 7.21544 15.8815 6.99374 15.6623L0.344159 8.85769C0.123794 8.63212 0 8.32622 0 8.00726C0 7.6883 0.123794 7.3824 0.344159 7.15683L6.99374 0.352185C7.21417 0.126681 7.5131 0 7.82479 0C8.13648 0 8.43541 0.126681 8.65584 0.352185Z" fill="#00284E"/>
</svg>
