<svg width="10" height="16" viewBox="0 0 10 16" fill="none" xmlns="http://www.w3.org/2000/svg">
<path d="M9.6176 0.352185C9.86245 0.577756 10 0.883657 10 1.20262C10 1.52157 9.86245 1.82747 9.6176 2.05305L3.15257 8.00726L9.6176 13.9615C9.85551 14.1883 9.98716 14.4922 9.98418 14.8076C9.9812 15.123 9.84385 15.4247 9.60169 15.6477C9.35954 15.8707 9.03196 15.9972 8.68951 16C8.34706 16.0027 8.01715 15.8815 7.77082 15.6623L0.382399 8.85769C0.137549 8.63212 0 8.32622 0 8.00726C0 7.6883 0.137549 7.3824 0.382399 7.15683L7.77082 0.352185C8.01575 0.126681 8.34789 0 8.69421 0C9.04053 0 9.37268 0.126681 9.6176 0.352185Z" fill="#50ABFF"/>
</svg>
