<svg width="24" height="22" viewBox="0 0 24 22" fill="none" xmlns="http://www.w3.org/2000/svg">
<path d="M22.2252 0.351344C22.0002 0.126379 21.695 0 21.3768 0C21.0586 0 20.7534 0.126379 20.5284 0.351344L1.776 19.1061C1.66139 19.2168 1.56997 19.3493 1.50708 19.4957C1.44419 19.6421 1.41108 19.7995 1.4097 19.9589C1.40831 20.1182 1.43868 20.2762 1.49901 20.4237C1.55935 20.5712 1.64845 20.7051 1.76113 20.8178C1.8738 20.9305 2.00778 21.0196 2.15526 21.0799C2.30273 21.1403 2.46075 21.1706 2.62008 21.1692C2.77942 21.1679 2.93688 21.1348 3.08329 21.0719C3.22969 21.009 3.3621 20.9176 3.4728 20.8029L22.224 2.04814C22.449 1.82311 22.5753 1.51794 22.5753 1.19974C22.5753 0.881547 22.449 0.576377 22.224 0.351344H22.2252ZM3.7296 14.7753L6.8016 11.7033C6.71401 11.3345 6.66852 10.9569 6.666 10.5777C6.666 7.72294 9.054 5.40694 12 5.40694C12.3432 5.40694 12.6768 5.44534 13.002 5.50534L14.4456 4.06294C13.6372 3.92903 12.8194 3.8608 12 3.85894C4.128 3.85774 0 9.65494 0 10.5777C0 11.0853 1.2684 13.0857 3.7296 14.7741V14.7753ZM20.274 6.38374L17.1996 9.45574C17.2824 9.81814 17.3328 10.1913 17.3328 10.5777C17.3328 13.4325 14.946 15.7461 12 15.7461C11.6592 15.7461 11.328 15.7077 11.0052 15.6489L9.5604 17.0925C10.3308 17.2173 11.1396 17.2965 12 17.2965C19.872 17.2965 24 11.4969 24 10.5777C24 10.0689 22.7328 8.06974 20.274 6.38374Z" fill="#00284E"/>
</svg>
