<svg width="9" height="16" viewBox="0 0 9 16" fill="none" xmlns="http://www.w3.org/2000/svg">
<path d="M0.344159 0.352185C0.123794 0.577756 0 0.883657 0 1.20262C0 1.52157 0.123794 1.82747 0.344159 2.05305L6.16269 8.00726L0.344159 13.9615C0.130039 14.1883 0.0115595 14.4922 0.0142374 14.8076C0.0169153 15.123 0.140537 15.4247 0.358478 15.6477C0.576417 15.8707 0.871238 15.9972 1.17944 16C1.48764 16.0027 1.78456 15.8815 2.00626 15.6623L8.65584 8.85769C8.87621 8.63212 9 8.32622 9 8.00726C9 7.6883 8.87621 7.3824 8.65584 7.15683L2.00626 0.352185C1.78583 0.126681 1.4869 0 1.17521 0C0.863519 0 0.56459 0.126681 0.344159 0.352185Z" fill="#00284E"/>
</svg>
