<svg width="48" height="48" viewBox="0 0 48 48" fill="none" xmlns="http://www.w3.org/2000/svg">
<path d="M40.3634 26.1518L40.2503 27.0003L40.9233 27.5293L45.738 31.314L41.1916 39.1755L35.4844 36.8831L34.686 36.5624L34.006 37.0897C32.8809 37.9622 31.649 38.6909 30.3101 39.2356L29.5112 39.5605L29.3901 40.4145L28.5276 46.5H19.4479L18.5854 40.4145L18.4644 39.5605L17.6655 39.2356C16.3341 38.694 15.123 37.9662 13.9579 37.0808L13.2806 36.566L12.4912 36.8831L6.78396 39.1755L2.23819 31.3151L7.09659 27.5337L7.80177 26.9848L7.65486 26.1034C7.54707 25.4566 7.50027 24.7178 7.50027 24C7.50027 23.342 7.58628 22.6081 7.70486 21.8966L7.85177 21.0151L7.14659 20.4663L2.28769 16.6845L6.80945 8.82467L12.5162 11.1169L13.3027 11.4328L13.9792 10.9221C15.1256 10.0564 16.3626 9.30458 17.6905 8.76444L18.4894 8.43946L18.6104 7.58549L19.4729 1.5H28.5526L29.4151 7.58549L29.5362 8.43946L30.3351 8.76444C31.6665 9.30602 32.8776 10.0338 34.0427 10.9192L34.72 11.434L35.5094 11.1169L41.2166 8.82447L45.7624 16.6849L40.904 20.4663L40.1988 21.0151L40.3457 21.8966C40.4536 22.5443 40.5003 23.2585 40.5003 24C40.5003 24.7635 40.4541 25.4721 40.3634 26.1518ZM13.5003 24C13.5003 29.7784 18.2218 34.5 24.0003 34.5C29.7787 34.5 34.5003 29.7784 34.5003 24C34.5003 18.2216 29.7787 13.5 24.0003 13.5C18.2218 13.5 13.5003 18.2216 13.5003 24Z" stroke="#50ABFF" stroke-width="3"/>
</svg>
