<svg width="60" height="60" viewBox="0 0 60 60" fill="none" xmlns="http://www.w3.org/2000/svg">
<g clip-path="url(#clip0_765_1600)">
<path d="M47.85 32.35C47.95 31.6 48 30.825 48 30C48 29.2 47.95 28.4 47.825 27.65L52.9 23.7C53.35 23.35 53.475 22.675 53.2 22.175L48.4 13.875C48.1 13.325 47.475 13.15 46.925 13.325L40.95 15.725C39.7 14.775 38.375 13.975 36.9 13.375L36 7.025C35.9 6.425 35.4 6 34.8 6H25.2C24.6 6 24.125 6.425 24.025 7.025L23.125 13.375C21.65 13.975 20.3 14.8 19.075 15.725L13.1 13.325C12.55 13.125 11.925 13.325 11.625 13.875L6.85003 22.175C6.55003 22.7 6.65003 23.35 7.15003 23.7L12.225 27.65C12.1 28.4 12 29.225 12 30C12 30.775 12.05 31.6 12.175 32.35L7.10003 36.3C6.65003 36.65 6.52503 37.325 6.80003 37.825L11.6 46.125C11.9 46.675 12.525 46.85 13.075 46.675L19.05 44.275C20.3 45.225 21.625 46.025 23.1 46.625L24 52.975C24.125 53.575 24.6 54 25.2 54H34.8C35.4 54 35.9 53.575 35.975 52.975L36.875 46.625C38.35 46.025 39.7 45.225 40.925 44.275L46.9 46.675C47.45 46.875 48.075 46.675 48.375 46.125L53.175 37.825C53.475 37.275 53.35 36.65 52.875 36.3L47.85 32.35ZM30 39C25.05 39 21 34.95 21 30C21 25.05 25.05 21 30 21C34.95 21 39 25.05 39 30C39 34.95 34.95 39 30 39Z" fill="#00284E"/>
</g>
<defs>
<clipPath id="clip0_765_1600">
<rect width="60" height="60" fill="white"/>
</clipPath>
</defs>
</svg>
