<?xml version="1.0" encoding="UTF-8"?><svg id="Layer_1" xmlns="http://www.w3.org/2000/svg" viewBox="0 0 234.307 68.192"><defs><style>.cls-1,.cls-2{fill:#47a4ff;}.cls-2{stroke:#47a4ff;stroke-miterlimit:10;stroke-width:3px;}</style></defs><path class="cls-1" d="M74.519,65.14c-3.523-2.031-6.254-4.888-8.189-8.571-1.938-3.681-2.905-7.966-2.905-12.856V24.477c0-4.888,.967-9.173,2.905-12.856,1.936-3.681,4.681-6.538,8.237-8.571C78.122,1.02,82.216,.004,86.851,.004h10.094c4.634,0,8.713,1.016,12.237,3.047,3.523,2.033,6.252,4.89,8.189,8.571,1.936,3.683,2.905,7.968,2.905,12.856v19.237c0,4.89-.969,9.175-2.905,12.856-1.937,3.683-4.682,6.54-8.237,8.571-3.556,2.033-7.618,3.048-12.189,3.048h-10.19c-4.635,0-8.713-1.015-12.237-3.048Zm23.236-5.047c4.316,0,7.809-1.507,10.475-4.523,2.667-3.015,4-7.031,4-12.047V24.668c0-5.014-1.333-9.03-4-12.046-2.666-3.015-6.159-4.523-10.475-4.523h-9.808c-4.318,0-7.809,1.508-10.475,4.523-2.667,3.016-4,7.032-4,12.046v18.855c0,5.016,1.317,9.032,3.952,12.047,2.634,3.016,6.11,4.523,10.428,4.523h9.904Z"/><path class="cls-1" d="M170.76,66.617l-23.779-29.794-7.89,8.474v18.264c0,2.555-2.071,4.627-4.627,4.627h0c-2.555,0-4.627-2.071-4.627-4.627V4.631c0-2.555,2.071-4.627,4.627-4.627h0c2.555,0,4.627,2.071,4.627,4.627v28.978S169.021,1.34,169.021,1.34c.79-.852,1.9-1.336,3.062-1.336h0c3.661,0,5.55,4.375,3.04,7.04l-21.811,23.156,24.81,31.213c2.175,2.737,.226,6.775-3.269,6.775h-.829c-1.27,0-2.472-.578-3.264-1.571Z"/><path class="cls-1" d="M191.595,68.188c-2.825,0-5.114-2.29-5.114-5.114V5.118C186.481,2.294,188.771,.004,191.595,.004h38.718c2.206,0,3.994,1.788,3.994,3.994v.097c0,2.206-1.788,3.994-3.994,3.994h-34.579V29.323h31.657c2.206,0,3.994,1.788,3.994,3.994h0c0,2.206-1.788,3.994-3.994,3.994h-31.657v22.793h34.579c2.206,0,3.994,1.788,3.994,3.994v.097c0,2.206-1.788,3.994-3.994,3.994h-38.718Z"/><path class="cls-2" d="M53.472,2.451c-.604-.634-1.419-.951-2.445-.951s-1.855,.317-2.489,.951c-.634,.634-.95,1.525-.95,2.671v4.918c-1.931-.404-4.374-.564-5.527,.79-2.064,2.422-2.287,7.281,0,11.184,.982,1.676,2.962,1.785,4.902,1.368-.786,3.974-2.318,7.298-4.626,9.946-3.502,4.014-8.301,6.021-14.397,6.021-6.157,0-10.971-1.993-14.441-5.975-2.563-2.941-4.172-6.744-4.843-11.395,.754-.062,1.515-.225,2.284-.503,.765-.277,1.277-1.006,1.277-1.819v-1.119c0-.461,.374-.835,.835-.835h1.863c.499,0,.904-.405,.904-.904v-1.466c0-.499-.405-.904-.904-.904h-1.838c-.414,0-.75-.336-.75-.75,0-.937-.571-1.787-1.445-2.126-.824-.32-1.691-.517-2.589-.624V5.122c0-1.146-.303-2.036-.906-2.671-.604-.634-1.449-.951-2.535-.951-1.027,0-1.842,.317-2.445,.951-.604,.634-.905,1.525-.905,2.671v11.319c0,5.373,.935,10.111,2.807,14.214,1.87,4.107,4.542,7.397,8.014,9.871,3.47,2.474,7.56,3.954,12.268,4.435v18.109c0,1.147,.302,2.036,.906,2.671,.602,.634,1.417,.951,2.444,.951,1.087,0,1.932-.317,2.536-.951,.602-.634,.905-1.523,.905-2.671v-18.109c4.527-.544,8.541-2.082,12.042-4.617,3.5-2.537,6.202-5.87,8.103-10.005,1.901-4.135,2.853-8.769,2.853-13.899V5.122c0-1.146-.303-2.036-.906-2.671Z"/></svg>